<?xml version="1.0" encoding="UTF-8"?>
<svg width="512" height="512" viewBox="0 0 512 512" fill="none" xmlns="http://www.w3.org/2000/svg">
  <rect width="512" height="512" rx="100" fill="#3B82F6"/>
  <path d="M256 128C192.3 128 140 180.3 140 244C140 280 158.8 312.8 187.5 332.5C184.3 355.5 175.8 376.8 162.5 395C160 398.8 159.3 403.5 160.8 407.8C162.3 412 165.8 415.3 170.3 416.5C173.5 417.5 177 418 180.5 418C204.3 418 227.3 407.5 244.8 390.3C248.5 390.8 252.3 391 256 391C319.7 391 372 338.7 372 275C372 211.3 319.7 128 256 128ZM256 359C251.5 359 247 358.8 242.5 358.3C238.8 357.8 234.8 358.8 231.8 361.5C220.5 371.8 206.8 378.5 192 381.3C197.8 371.3 202.3 360.5 205 349.3C206.3 344.5 204.8 339.5 201 336.3C177.5 320 164 293.3 164 265C164 214.3 205.3 173 256 173C306.7 173 348 244.3 348 295C348 345.7 306.7 359 256 359Z" fill="white"/>
  <circle cx="200" cy="275" r="20" fill="white"/>
  <circle cx="256" cy="275" r="20" fill="white"/>
  <circle cx="312" cy="275" r="20" fill="white"/>
</svg>
